# xmcd CD database file
#
# Track frame offsets:
#	150
#	22925
#	41822
#	65052
#	80675
#	98805
#	121142
#	147835
#	168295
#
# Disc length: 2509 seconds
#
# Revision: 0
# Processed by: cddbd v1.5PL3 Copyright (c) Steve Scherf et al.
# Submitted via: CDex 1.51
#
DISCID=7309cb09
DTITLE=久保田真琴と夕焼け楽団 - DIXIE FEVER
DYEAR=1900
DGENRE=Blues
TTITLE0=DIXIE FEVER
TTITLE1=Wild About My Lovin'
TTITLE2=らくだのブルース
TTITLE3=ハートのメロディー
TTITLE4=星くず
TTITLE5=チャイナ・タウン・ブルース
TTITLE6=キャプテン・バナナ
TTITLE7=カウボーイだった頃
TTITLE8=一つだけ光るもの
EXTD=
EXTT0=
EXTT1=
EXTT2=
EXTT3=
EXTT4=
EXTT5=
EXTT6=
EXTT7=
EXTT8=
PLAYORDER=
